<svg width="80" height="80" viewBox="0 0 80 80" fill="none" xmlns="http://www.w3.org/2000/svg">
<g clip-path="url(#clip0_366_30)">
<mask id="mask0_366_30" style="mask-type:alpha" maskUnits="userSpaceOnUse" x="16" y="28" width="47" height="25">
<path d="M35.3725 30.541C33.6234 28.0769 30.2538 27.5307 27.8464 29.3209C25.4389 31.1112 24.9052 34.56 26.6544 37.0241L36.1539 50.4068C37.903 52.8709 41.2726 53.4171 43.68 51.6268C46.0875 49.8366 46.6211 46.3877 44.872 43.9236L35.3725 30.541Z" fill="#0092B8"/>
<path d="M51.5629 30.541C49.8138 28.0769 46.4443 27.5307 44.0368 29.3209C41.6294 31.1112 41.0957 34.56 42.8448 37.0241L52.3443 50.4068C54.0934 52.8709 57.463 53.4171 59.8704 51.6268C62.2779 49.8366 62.8116 46.3877 61.0625 43.9236L51.5629 30.541Z" fill="#0092B8"/>
<path d="M35.2085 36.9433C36.9574 34.4795 36.4238 31.0312 34.0167 29.2411C31.6096 27.4511 28.2405 27.9973 26.4916 30.461L17.1664 43.5981C15.4175 46.0618 15.9511 49.5102 18.3582 51.3002C20.7654 53.0903 24.1345 52.5441 25.8834 50.0803L35.2085 36.9433Z" fill="#0092B8"/>
</mask>
<g mask="url(#mask0_366_30)">
<path d="M64.0782 28.0859H13.8877V54.6002H64.0782V28.0859Z" fill="black"/>
</g>
</g>
<defs>
<clipPath id="clip0_366_30">
<rect width="80" height="80" rx="12" fill="white"/>
</clipPath>
</defs>
</svg>
